<svg xmlns="http://www.w3.org/2000/svg" viewBox="0 0 110.119 110.119">
  <path fill="#fff" d="M134.811,46.23l24.36-29.89c1.492-1.989,2.2-3.03,1.492-4.723a5.142,5.142,0,0,0-4.481-3.161h0a4.024,4.024,0,0,0-3.008,1.108L127.037,37.824Z" transform="translate(-75 -8)"/>
  <path fill="#fff" d="M168.108,102.071,135.745,63.788l-.972,1.033-7.789-9.214-7.743-9.357-4.695,5.076a4.769,4.769,0,0,0,.015,6.53L162.347,108.93a3.913,3.913,0,0,0,3.137,1.192,4.394,4.394,0,0,0,4.027-2.818C170.231,105.574,169.431,103.863,168.108,102.071Z" transform="translate(-75 -8)"/>
  <path fill="#fff" d="M121.05,64.817l6.052,6.485L100.549,99.43a2.98,2.98,0,0,1-2.275,1.194,3.449,3.449,0,0,1-3.241-2.144c-.513-1.231.166-3.15,1.122-4.168l.023-.024.021-.026,24.851-29.448m-.047-1.882-25.76,30.524c-1.286,1.372-2.084,3.777-1.365,5.5a4.705,4.705,0,0,0,4.4,2.914,4.191,4.191,0,0,0,3.161-1.563l27.382-29.007-7.814-8.372Z" transform="translate(-75 -8)"/>
  <path fill="#fff" d="M90.373,1.25h.077c1,.024,2.236,1.245,2.589,1.669l.023.028.024.026,46.664,50.433a3.173,3.173,0,0,1-.034,4.336l-4.893,5.2-6.876-8.134L88.487,7.13c-1.508-2.166-1.617-2.836-1.191-3.858a3.353,3.353,0,0,1,3.077-2.02m0-1.25a4.606,4.606,0,0,0-4.231,2.789c-.705,1.692-.2,2.88,1.349,5.1l39.493,47.722,7.789,9.214,5.853-6.221a4.417,4.417,0,0,0,.042-6.042L94,1.13s-1.713-2.08-3.524-2.124Z" transform="translate(-75 -8)"/>
</svg>
