<svg width="1361" height="795" viewBox="0 0 1361 795" fill="none" xmlns="http://www.w3.org/2000/svg">
<path d="M273.391 197.956C270.11 203.293 266.999 208.307 263.453 214.022C257.139 198.608 247.175 187.073 232.465 180.319C217.94 173.649 202.859 173.205 186.649 178.197C211.324 141.999 235.484 106.557 259.934 70.6898C272.236 100.948 294.369 114.686 327.096 112.552C309.169 141.042 291.365 169.337 273.391 197.956Z" fill="#CF152D"/>
<path d="M424.652 87.1071C406.745 86.0312 389.318 84.9618 371.31 83.8567C383.036 61.5626 382.51 39.5835 369.031 17.3187C413.919 24.1522 457.984 30.8606 502.803 37.6835C491.778 54.9114 490.404 72.5806 499.744 91.1729C474.513 89.8001 449.823 88.4568 424.652 87.1071Z" fill="#DCE0DF"/>
<path d="M308.557 103.166C283.086 97.8745 266.314 77.9173 266.141 53.171C265.963 27.6505 281.618 6.91397 305.994 1.41718C341.437 -6.57545 372.079 20.3586 370.813 54.0594C369.912 78.0389 351.83 99.3823 328.19 102.984C321.924 103.939 315.396 103.178 308.557 103.166ZM318.102 79.393C318.602 79.394 319.102 79.4116 319.6 79.3937C331.007 78.9834 339.174 73.4315 343.522 63.0696C347.717 53.072 346.635 43.1986 339.549 34.7549C332.031 25.7968 322.174 23.0863 310.915 26.076C297.566 29.6208 290.025 41.1968 291.636 56.0868C293.122 69.8187 305.998 79.705 318.102 79.393Z" fill="#CF152D"/>
<path d="M289.34 271.33C302.263 283.858 314.931 296.142 327.598 308.426C327.415 309.035 327.231 309.644 327.048 310.253C308.355 308.47 291.677 312.718 278.419 326.197C265.129 339.71 260.703 356.364 262.294 376.511C239.65 348.178 217.822 320.867 195.66 293.138C211.518 295.871 225.956 293.23 239.19 284.94C252.597 276.543 260.781 264.28 265.213 248.01C273.442 255.965 281.263 263.526 289.34 271.33Z" fill="#63656A"/>
<path d="M246.827 266.342C233.133 282.545 215.813 288.498 195.846 283.862C176.125 279.284 163.403 266.367 158.146 246.517C150.349 217.077 170.514 187.793 200.688 183.943C230.031 180.199 257.43 201.624 258.261 233.964C258.563 245.711 254.582 256.692 246.827 266.342ZM232.45 226.107C231.83 224.772 231.274 223.404 230.581 222.109C224.192 210.178 209.914 204.935 197.46 209.922C184.693 215.036 178.291 228.301 182.16 241.626C186.261 255.751 200.273 263.792 214.331 260.088C228.493 256.357 236.421 241.937 232.45 226.107Z" fill="#63656A"/>
<path d="M562.297 34.3153C576.159 43.1531 582.711 55.8494 581.044 71.4937C579.147 89.2966 568.723 100.793 551.077 105.453C530.378 110.92 506.881 96.4434 502.61 75.4028C497.981 52.6029 512.861 32.1 535.777 28.9526C545.308 27.6437 553.77 29.78 562.297 34.3153ZM547.885 85.2853C558.539 81.4479 563.524 70.804 559.484 60.5199C555.676 50.8268 543.848 46.0451 533.753 50.1176C523.978 54.0609 519.321 65.5681 523.806 75.2582C526.875 81.8873 533.732 88.1443 547.885 85.2853Z" fill="#DCE0DF"/>
<path fill-rule="evenodd" clip-rule="evenodd" d="M437.564 466.011C437.564 465.619 437.565 465.223 437.565 464.827C437.565 465.222 437.564 465.621 437.564 466.011ZM223.961 446.11C223.511 446.11 223.062 446.109 222.614 446.109C223.061 446.109 223.512 446.11 223.961 446.11Z" fill="#DCE0DF"/>
<path fill-rule="evenodd" clip-rule="evenodd" d="M413.333 446.106C412.572 446.106 411.81 446.106 411.047 446.106H411.07H411.092C411.839 446.106 412.586 446.106 413.333 446.106Z" fill="#DCE0DF"/>
<path fill-rule="evenodd" clip-rule="evenodd" d="M437.565 464.827L437.564 466.011V466.069C437.563 467.797 437.561 469.496 437.561 471.155L195.555 474.104C195.555 471.986 195.553 469.893 195.551 467.818V467.806V467.794L195.551 467.727C195.548 462.933 195.544 458.224 195.56 453.523C195.58 447.659 197.082 446.124 202.79 446.116C209.341 446.106 215.891 446.107 222.614 446.109L223.961 446.11L224.145 446.11L226.446 446.111L227.048 446.111L230.012 446.111L230.296 446.111L230.503 446.111L233.317 446.112C233.317 444.964 233.299 443.846 233.28 442.749C233.242 440.416 233.204 438.178 233.351 435.952C234.014 425.892 242.216 418.243 252.382 418.121C256.373 418.074 260.365 418.085 264.48 418.098C266.37 418.103 268.291 418.109 270.244 418.109C270.278 417.684 270.321 417.266 270.363 416.852C270.453 415.977 270.54 415.124 270.541 414.27C270.555 403.358 270.554 392.446 270.554 381.534V381.462C270.554 376.232 270.553 371.002 270.555 365.772C270.561 340.216 291.265 318.53 316.929 318.436C343.037 318.34 363.64 338.099 364.452 364.026C364.836 376.286 364.741 388.56 364.646 401.041V401.053V401.064V401.074V401.085C364.602 406.71 364.559 412.376 364.559 418.102L369.573 418.102C373.263 418.102 376.892 418.102 380.522 418.102C394.174 418.103 402.534 426.42 402.56 440.027C402.562 441.237 402.562 442.448 402.561 443.84V443.899V443.958V444.018C402.561 444.668 402.56 445.358 402.56 446.107C404.455 446.107 406.345 446.107 408.23 446.106L410.825 446.106H410.98H411.002H411.025H411.047H411.07H411.092L413.333 446.106L413.619 446.106C419.088 446.105 424.531 446.105 429.973 446.108C436.102 446.112 437.538 447.533 437.557 453.66C437.569 457.418 437.568 461.18 437.565 464.827ZM304.83 352.449C305.071 352.17 305.311 351.891 305.542 351.607C315.93 343.711 327.342 344.872 333.53 353.897C338.79 361.567 337.576 372.381 330.786 378.328C323.655 384.576 313.641 384.821 306.767 378.916C299.439 372.62 298.018 362.458 303.362 354.312C303.794 353.653 304.312 353.051 304.83 352.449Z" fill="#DCE0DF"/>
<path d="M610.122 108.092C619.654 106.618 630.635 112.147 640.678 125.126C650.575 137.915 658.593 156.87 662.011 178.98C665.429 201.089 663.51 221.58 657.937 236.761C652.282 252.166 643.482 260.753 633.951 262.227C624.42 263.7 613.439 258.171 603.396 245.193C593.499 232.404 585.481 213.449 582.062 191.34C578.644 169.23 580.565 148.739 586.138 133.557C591.793 118.152 600.591 109.566 610.122 108.092Z" stroke="#63656A" stroke-width="12"/>
<path d="M473.16 137.698C482.985 128.51 495.243 126.448 507.406 124.112C521.813 121.346 535.557 118.613 550.512 115.388C576.107 109.633 550.512 115.388 576.107 109.633C573.128 111.249 578.586 108.128 576.107 109.633C574.697 113.588 577.694 105.184 576.107 109.633C577.739 109.403 578.877 109.242 580.844 108.965C565.991 135.231 564.383 163.163 567.723 191.561C571.079 220.09 580.905 245.956 603.563 266.556C595.409 267.84 588.192 268.994 580.969 270.11C562.176 273.013 543.281 275.383 524.609 278.929C502.749 283.08 486.73 274.087 474.17 257.615C458.355 236.873 453.298 212.75 454.24 187.111C454.624 176.665 455.745 166.209 460.53 156.824C463.927 150.161 467.557 143.613 473.16 137.698Z" fill="#63656A"/>
<g filter="url(#filter0_f_9_207)">
<path fill-rule="evenodd" clip-rule="evenodd" d="M662.371 415.68C662.187 416.202 662.187 416.202 662.371 415.68V415.68ZM1355.38 695.822L1355.38 699.371L1355.38 695.822ZM1355.38 699.371L1355.38 702.575L1355.38 699.371Z" fill="url(#paint0_linear_9_207)" fill-opacity="0.8"/>
<path fill-rule="evenodd" clip-rule="evenodd" d="M1355.39 705.373L1355.38 702.575C1355.39 704.581 1355.39 706.59 1355.39 708.603L1355.39 705.373ZM1355.38 695.822L1355.38 699.371L1355.38 702.575C1355.38 701.507 1355.38 700.438 1355.38 699.371C1355.38 698.187 1355.38 697.004 1355.38 695.822Z" fill="url(#paint1_linear_9_207)" fill-opacity="0.8"/>
<path fill-rule="evenodd" clip-rule="evenodd" d="M1355.38 699.371L1355.38 695.822C1355.38 697.004 1355.38 698.187 1355.38 699.371C1355.38 700.438 1355.38 701.507 1355.38 702.575L1355.38 699.371ZM1355.38 702.575C1355.39 704.581 1355.39 706.59 1355.39 708.603L1355.39 705.373L1355.38 702.575Z" fill="url(#paint2_linear_9_207)" fill-opacity="0.8"/>
<path fill-rule="evenodd" clip-rule="evenodd" d="M853.438 540.48C853.443 540.48 853.448 540.858 853.452 540.858L853.438 540.48Z" fill="url(#paint3_linear_9_207)" fill-opacity="0.8"/>
<path fill-rule="evenodd" clip-rule="evenodd" d="M847.942 540.485L847.96 540.863L847.984 540.485C847.97 540.485 847.956 540.485 847.942 540.485Z" fill="url(#paint4_linear_9_207)" fill-opacity="0.8"/>
<path fill-rule="evenodd" clip-rule="evenodd" d="M655.557 428.216C658.828 425.951 661.557 418.491 662.371 415.68C664.228 410.398 666.918 398.635 667.065 393.285C668.279 349.178 651.72 305.71 622.057 268.491C614.557 260.991 622.254 261.885 619.057 258.991C617.385 257.478 627.44 256.155 625.057 255.491C617.019 252.956 616.497 245.541 611.282 236.128C609.373 232.68 607.941 226.132 606.782 224.628C596.049 210.701 601.758 231.908 600.157 223.896C600.057 223.398 618.912 235.645 599.912 222.145C600.272 223.601 595.795 213.703 597.5 214.378C594 206.878 589 195.878 587.5 188.378C588.274 190.878 590.5 194.808 593 195.878C611.478 203.786 634.128 217.842 644.557 226.991C654.985 236.14 657.255 239.857 662.026 246.804C676.147 267.363 682.918 290.007 687.522 312.985C690.726 328.978 691.184 345.358 694.041 361.405L694.053 361.095C696.168 372.934 698.803 392.669 701.057 404.491C701.878 408.799 702.642 412.01 704.057 416.134C706.765 424.03 712.433 430.897 719.853 434.862C735.575 443.264 752.494 443.496 771.557 443.491C972.81 443.443 949.748 588.395 1151 588.404L1211.55 588.407C1238.84 588.408 1255.47 601.581 1255.48 623.116C1255.48 660.176 1255.48 697.237 1255.48 734.298C1255.48 748.428 1241.05 649.989 1241.06 664.12C1241.07 698.78 1116.96 571.11 1116.88 605.77C1116.84 628.643 1100.47 641.945 1072.53 641.947C684.708 641.963 660.503 768.498 271.991 768.5L370.35 677.928C361.289 677.927 352.229 677.937 343.168 677.96C322.463 677.999 416.759 653.192 396.057 653.015C367.207 652.768 299.985 744.29 300.521 727.267C301.038 710.84 300.922 694.4 300.806 677.96C300.439 625.891 300.514 573.806 300.769 521.737C300.878 499.626 460.868 551.217 488.835 551.271C635.443 551.555 400.396 597.385 547.005 597.328C583.467 597.313 621.77 601.118 658.004 596.266C668.915 594.805 688.353 656.021 500.057 540.464C498.476 528.538 503.961 516.445 515.918 512.55C523.695 510.017 532.267 508.083 540.583 507.801C552.069 507.413 529.074 453.427 540.583 453.491C548.403 445.991 579.512 444.129 588.057 443.991C604.479 443.726 621.317 444.095 636.202 438.157C642.955 435.462 652.286 430.481 655.557 428.216ZM849.743 540.861C849.878 540.861 850.012 540.861 850.147 540.861C850.183 540.861 850.219 540.861 850.255 540.861C850.308 540.861 850.361 540.483 850.414 540.483L850.255 540.861L850.147 540.861C850.183 540.861 850.219 540.861 850.255 540.861C850.308 540.861 850.361 540.483 850.414 540.483C850.785 540.483 851.155 540.482 851.526 540.482C851.568 540.482 851.61 540.482 851.651 540.482C851.675 540.482 851.698 540.86 851.722 540.86C851.745 540.86 851.769 540.86 851.792 540.86C852.016 540.859 852.241 540.859 852.465 540.859C852.525 540.859 852.584 540.859 852.643 540.859C852.743 540.858 852.843 540.481 852.942 540.481C852.981 540.481 853.019 540.481 853.058 540.48L853.438 540.48L853.452 540.858C860.146 540.858 885.757 536.286 889.031 543.773C893.442 553.863 897.742 563.985 902.041 574.107C902.587 575.392 903.133 576.3 903.68 577.585C904.29 579.02 904.9 580.832 905.51 582.267C912.718 598.695 919.887 615.146 927.26 631.5L928.211 631.336V541.163H968.258V709.277C965.316 709.277 962.298 709.283 959.377 709.288C958.127 709.291 956.876 709.293 955.628 709.295C946.897 709.309 938.238 709.3 929.591 709.116C928.218 709.087 926.306 707.007 925.673 705.582C911.944 674.657 899.474 642.697 884.212 612.443V709H845.065V540.864C846.018 540.864 846.971 540.863 847.925 540.863C847.931 540.863 847.936 540.485 847.942 540.485C847.956 540.485 847.97 540.485 847.984 540.485L849.54 540.862L849.743 540.861ZM850.414 540.483C850.785 540.483 851.155 540.482 851.526 540.482C851.568 540.482 851.61 540.482 851.651 540.482C851.675 540.482 851.698 540.86 851.722 540.86C851.745 540.86 851.769 540.86 851.792 540.86C852.016 540.859 852.241 540.859 852.465 540.859C852.525 540.859 852.584 540.859 852.643 540.859C852.743 540.858 852.843 540.481 852.942 540.481L852.643 540.859L852.465 540.859L851.792 540.86H851.722L851.651 540.482L851.526 540.482L850.414 540.483ZM738.529 652.591C738.509 657.912 738.495 662.962 738.591 668.007C738.839 681.196 752.024 681.937 762.172 681.782C792.909 681.312 777.531 602.798 777.515 583.157L777.487 548.238C777.486 546.687 777.486 545.135 777.487 543.53C777.487 543.518 777.487 543.505 777.487 543.492L777.487 541.007H819.656L819.658 544.456C819.658 544.468 819.658 544.481 819.658 544.493C819.659 546.791 819.66 549.031 819.656 551.271C819.576 591.55 819.778 631.831 819.304 672.107C819.031 695.269 801.077 710.16 772.387 711.193C759.607 711.653 746.529 711.615 733.965 709.949C713.666 707.258 698.905 693.162 696.581 676.108C695.755 670.053 695.323 663.933 695.305 657.842C695.185 618.764 695.246 579.686 695.246 540.608H738.553C738.553 577.935 738.675 615.264 738.529 652.591ZM1023.93 709.29C1040.72 708.621 1057.68 708.941 1074.26 707.046C1097.7 704.365 1111.59 692.987 1114.32 675.879C1119.77 641.659 1116.76 605.553 1114.21 571.21C1113.04 555.573 1098.81 544.244 1079.59 542.203C1050.57 539.122 1021.13 540.173 991.995 540.173V709.291H993.647C1003.53 709.291 1013.16 709.291 1023.93 709.29ZM560.542 549.332C550.192 558.361 547.366 569.633 547.187 581.238C546.76 608.943 546.972 636.658 547.083 664.367C547.102 669.092 547.54 673.858 548.403 678.531C551.334 694.4 563.825 706.353 583.359 709.122C610.218 712.928 658.24 718.367 670.267 686.463C672.734 679.921 674.594 672.971 674.769 666.174C675.36 643.334 675.209 620.48 675.058 597.632C675.039 588.548 674.728 579.428 673.605 570.408C671.596 554.276 657.889 542.139 638.134 540.171C624.207 538.784 609.99 539.186 595.897 539.004C582.891 538.836 571.023 541.567 560.542 549.332ZM1138.45 709.023H1180.5V647.229H1195.28L1218.94 709.11H1265.53L1235.32 642.013C1248.56 636.229 1252.87 633.044 1255.48 623.116C1260.84 602.697 1261.27 582.018 1255.32 561.671C1251.12 547.296 1241.36 541.64 1222.89 541.006C1194.76 540.04 1166.6 540.188 1138.45 540.188C1138.45 596.466 1138.45 652.745 1138.45 709.023ZM261.768 677.96H300.806L307.439 709.088H350.73L310.255 540.405H251.459L213.114 709.121L255.773 709.113C257.758 698.721 259.586 688.313 261.768 677.96ZM472.325 570.423H528.812V540.464H429.771V709.102H472.492V640.631H523.956V610.182H472.325L472.325 570.423ZM128.443 540.897H110.528V708.949H200.872V678.802H152.537V540.898C144.777 540.898 137.243 540.898 128.443 540.897Z" fill="url(#paint5_linear_9_207)" fill-opacity="0.8"/>
<path fill-rule="evenodd" clip-rule="evenodd" d="M655.557 428.216C652.286 430.481 642.955 435.462 636.202 438.157C621.317 444.095 604.479 443.726 588.057 443.991C579.512 444.129 548.403 445.991 540.583 453.491C529.074 453.427 552.069 507.413 540.583 507.801C532.267 508.083 523.695 510.017 515.918 512.55C503.961 516.445 498.476 528.538 500.057 540.464C688.353 656.021 668.915 594.805 658.004 596.266C621.77 601.118 583.467 597.313 547.005 597.328C400.396 597.385 635.443 551.555 488.835 551.271C460.868 551.217 300.878 499.626 300.769 521.737C300.514 573.806 300.439 625.891 300.806 677.96C300.922 694.4 301.038 710.84 300.521 727.267C299.985 744.29 367.207 652.768 396.057 653.015C416.759 653.192 322.463 677.999 343.168 677.96C352.229 677.937 361.289 677.927 370.35 677.928L271.991 768.5C660.503 768.498 684.708 641.963 1072.53 641.947C1100.47 641.945 1116.84 628.643 1116.88 605.77C1116.96 571.11 1241.07 698.78 1241.06 664.12C1241.05 649.989 1255.48 748.428 1255.48 734.298C1255.48 697.237 1255.48 660.176 1255.48 623.116C1255.47 601.581 1238.84 588.408 1211.55 588.407L1151 588.404C949.748 588.395 972.81 443.443 771.557 443.491C752.494 443.496 735.575 443.264 719.853 434.862C712.433 430.897 706.765 424.03 704.057 416.134C702.642 412.01 701.878 408.799 701.057 404.491C698.804 392.675 696.17 372.947 694.057 361.113L694.053 361.095L694.041 361.405C691.184 345.358 690.726 328.978 687.522 312.985C682.918 290.007 676.147 267.363 662.026 246.804C657.255 239.857 654.985 236.14 644.557 226.991C634.128 217.842 611.478 203.786 593 195.878C590.5 194.808 588.274 190.878 587.5 188.378C589 195.878 594 206.878 597.5 214.378C595.795 213.703 600.272 223.601 599.912 222.145C618.912 235.645 600.057 223.398 600.157 223.896C601.758 231.908 596.049 210.701 606.782 224.628C607.941 226.132 609.373 232.68 611.282 236.128C616.497 245.541 617.019 252.956 625.057 255.491C627.44 256.155 617.385 257.478 619.057 258.991C622.254 261.885 614.557 260.991 622.057 268.491C651.72 305.71 668.279 349.178 667.065 393.285C666.918 398.635 664.228 410.398 662.371 415.68C661.557 418.491 658.828 425.951 655.557 428.216ZM738.553 540.608H695.246C695.246 579.686 695.185 618.764 695.305 657.842C695.323 663.933 695.755 670.053 696.581 676.108C698.905 693.162 713.666 707.258 733.965 709.949C746.529 711.615 759.607 711.653 772.387 711.193C801.077 710.16 819.031 695.269 819.304 672.107C819.778 631.831 819.576 591.55 819.656 551.271C819.66 549.031 819.659 546.791 819.658 544.493C819.658 544.481 819.658 544.468 819.658 544.456L819.656 541.007H777.487L777.487 543.492C777.487 543.505 777.487 543.518 777.487 543.53C777.486 545.135 777.486 546.687 777.487 548.238L777.515 583.157C777.531 602.798 792.909 681.312 762.172 681.782C752.024 681.937 738.839 681.196 738.591 668.007C738.495 662.962 738.509 657.912 738.529 652.591C738.675 615.264 738.553 577.935 738.553 540.608ZM1023.93 709.29C1013.16 709.291 1003.53 709.291 993.647 709.291H991.995V540.173C1021.13 540.173 1050.57 539.122 1079.59 542.203C1098.81 544.244 1113.04 555.573 1114.21 571.21C1116.76 605.553 1119.77 641.659 1114.32 675.879C1111.59 692.987 1097.7 704.365 1074.26 707.046C1057.68 708.941 1040.72 708.621 1023.93 709.29ZM547.187 581.238C547.366 569.633 550.192 558.361 560.542 549.332C571.023 541.567 582.891 538.836 595.897 539.004C609.99 539.186 624.207 538.784 638.134 540.171C657.889 542.139 671.596 554.276 673.605 570.408C674.728 579.428 675.039 588.548 675.058 597.632C675.209 620.478 675.36 643.336 674.769 666.174C674.594 672.971 672.734 679.921 670.267 686.463C658.24 718.367 610.218 712.928 583.359 709.122C563.825 706.353 551.334 694.4 548.403 678.531C547.54 673.858 547.102 669.092 547.083 664.367C546.972 636.658 546.76 608.943 547.187 581.238ZM1138.45 709.023C1138.45 652.745 1138.45 596.466 1138.45 540.188C1166.6 540.188 1194.76 540.04 1222.89 541.006C1241.36 541.64 1251.12 547.296 1255.32 561.671C1261.27 582.018 1260.84 602.697 1255.48 623.116C1252.87 633.044 1248.56 636.229 1235.32 642.013L1265.53 709.11H1218.94L1195.28 647.229H1180.5V709.023H1138.45ZM261.768 677.96C259.586 688.313 257.758 698.721 255.773 709.113L213.114 709.121L251.459 540.405H310.255L350.73 709.088H307.439L300.806 677.96H261.768ZM472.325 570.423L472.325 610.182H523.956V640.631H472.492V709.102H429.771V540.464H528.812V570.423H472.325ZM110.528 540.897H128.443C137.243 540.898 144.777 540.898 152.537 540.898V678.802H200.872V708.949H110.528V540.897ZM847.984 540.485L849.54 540.862L849.743 540.861L850.147 540.861L850.255 540.861L850.414 540.483L851.526 540.482L851.651 540.482L851.722 540.86H851.792L852.465 540.859L852.643 540.859L852.942 540.481L853.058 540.48L853.438 540.48L853.452 540.858C860.146 540.858 885.757 536.286 889.031 543.773C893.442 553.863 897.742 563.985 902.041 574.107L903.68 577.585C904.29 579.02 904.9 580.832 905.51 582.267C912.718 598.695 919.887 615.146 927.26 631.5L928.211 631.336V541.163H968.258V709.277C965.316 709.277 962.298 709.283 959.377 709.288C958.127 709.291 956.876 709.293 955.628 709.295C946.898 709.309 938.236 709.3 929.591 709.116C928.218 709.087 926.306 707.007 925.673 705.582C911.944 674.657 899.474 642.697 884.212 612.443V709H845.065V540.864C846.018 540.864 846.971 540.863 847.925 540.863C847.931 540.863 847.936 540.485 847.942 540.485L847.96 540.863L847.984 540.485Z" fill="url(#paint6_linear_9_207)" fill-opacity="0.8"/>
<path fill-rule="evenodd" clip-rule="evenodd" d="M719.853 434.862C735.575 443.264 752.494 443.496 771.557 443.491C972.81 443.443 949.748 588.395 1151 588.404L1211.55 588.407C1238.84 588.408 1255.47 601.581 1255.48 623.116C1255.48 660.176 1255.48 697.237 1255.48 734.298C1255.48 748.428 1241.05 649.989 1241.06 664.12C1241.07 698.78 1116.96 571.11 1116.88 605.77C1116.84 628.643 1100.47 641.945 1072.53 641.947C684.708 641.963 660.503 768.498 271.991 768.5L370.35 677.928C361.289 677.927 352.229 677.937 343.168 677.96C322.463 677.999 416.759 653.192 396.057 653.015C367.207 652.768 299.985 744.29 300.521 727.267C301.038 710.84 300.922 694.4 300.806 677.96C300.439 625.891 300.514 573.806 300.769 521.737C300.878 499.626 460.868 551.217 488.835 551.271C635.443 551.555 400.396 597.385 547.005 597.328C583.467 597.313 621.77 601.118 658.004 596.266C668.915 594.805 688.353 656.021 500.057 540.464C498.476 528.538 503.961 516.445 515.918 512.55C523.695 510.017 532.267 508.083 540.583 507.801C552.069 507.413 529.074 453.427 540.583 453.491C548.403 445.991 579.512 444.129 588.057 443.991C604.479 443.726 621.317 444.095 636.202 438.157C642.955 435.462 652.286 430.481 655.557 428.216C658.828 425.951 661.557 418.491 662.371 415.68C664.228 410.398 666.918 398.635 667.065 393.285C668.279 349.178 651.72 305.71 622.057 268.491C614.557 260.991 622.254 261.885 619.057 258.991C617.385 257.478 627.44 256.155 625.057 255.491C617.019 252.956 616.497 245.541 611.282 236.128C609.373 232.68 607.941 226.132 606.782 224.628C596.049 210.701 601.758 231.908 600.157 223.896C600.928 224.784 596.459 213.966 597.5 214.378C594 206.878 589 195.878 587.5 188.378C588.274 190.878 590.5 194.808 593 195.878C611.478 203.786 634.128 217.842 644.557 226.991C654.985 236.14 657.255 239.857 662.026 246.804C676.147 267.363 682.918 290.007 687.522 312.985C690.726 328.978 691.184 345.358 694.041 361.405C696.159 373.263 698.799 392.65 701.057 404.491C701.878 408.799 702.642 412.01 704.057 416.134C706.765 424.03 712.433 430.897 719.853 434.862ZM738.529 652.591C738.509 657.912 738.495 662.962 738.591 668.007C738.839 681.196 752.024 681.937 762.172 681.782C792.909 681.312 777.531 602.798 777.515 583.157L777.487 548.238C777.486 546.669 777.487 545.1 777.487 543.53V543.492L777.487 541.007H819.656L819.658 544.456V544.493C819.658 546.752 819.66 549.012 819.656 551.271C819.576 591.55 819.778 631.831 819.304 672.107C819.031 695.269 801.077 710.16 772.387 711.193C759.607 711.653 746.529 711.615 733.965 709.949C713.666 707.258 698.905 693.162 696.581 676.108C695.755 670.053 695.323 663.933 695.305 657.842C695.185 618.764 695.246 579.686 695.246 540.608H738.553C738.553 577.935 738.675 615.264 738.529 652.591ZM905.51 582.267C904.353 579.547 903.197 576.827 902.041 574.107C897.742 563.985 893.442 553.863 889.031 543.773C885.757 536.286 860.146 540.858 853.452 540.858L852.643 540.859L852.465 540.859L851.792 540.86H851.722L850.255 540.861L850.147 540.861L849.743 540.861L849.54 540.862L847.96 540.863H847.925C846.971 540.863 846.018 540.864 845.065 540.864V709H884.212V612.443C899.474 642.697 911.944 674.657 925.673 705.582C926.306 707.007 928.218 709.087 929.591 709.116C938.241 709.3 946.896 709.309 955.628 709.295C956.876 709.293 958.127 709.291 959.377 709.288C962.337 709.299 965.298 709.277 968.258 709.277V541.163H928.211V631.336L927.26 631.5C919.887 615.146 912.718 598.695 905.51 582.267ZM1023.93 709.29C1040.72 708.621 1057.68 708.941 1074.26 707.046C1097.7 704.365 1111.59 692.987 1114.32 675.879C1119.77 641.659 1116.76 605.553 1114.21 571.21C1113.04 555.573 1098.81 544.244 1079.59 542.203C1050.57 539.122 1021.13 540.173 991.995 540.173V709.291H993.647C1003.53 709.291 1013.16 709.291 1023.93 709.29ZM560.542 549.332C550.192 558.361 547.366 569.633 547.187 581.238C546.76 608.943 546.972 636.658 547.083 664.367C547.102 669.092 547.54 673.858 548.403 678.531C551.334 694.4 563.825 706.353 583.359 709.122C610.218 712.928 658.24 718.367 670.267 686.463C672.734 679.921 674.594 672.971 674.769 666.174C675.36 643.336 675.209 620.478 675.058 597.632C675.039 588.548 674.728 579.428 673.605 570.408C671.596 554.276 657.889 542.139 638.134 540.171C624.207 538.784 609.99 539.186 595.897 539.004C582.891 538.836 571.023 541.567 560.542 549.332ZM1138.45 709.023H1180.5V647.229H1195.28L1218.94 709.11H1265.53L1235.32 642.013C1248.56 636.229 1252.87 633.044 1255.48 623.116C1260.84 602.697 1261.27 582.018 1255.32 561.671C1251.12 547.296 1241.36 541.64 1222.89 541.006C1194.76 540.04 1166.6 540.188 1138.45 540.188C1138.45 596.466 1138.45 652.745 1138.45 709.023ZM261.768 677.96H300.806L307.439 709.088H350.73L310.255 540.405H251.459L213.114 709.121L255.773 709.113C257.758 698.721 259.586 688.313 261.768 677.96ZM472.325 570.423H528.812V540.464H429.771V709.102H472.492V640.631H523.956V610.182H472.325L472.325 570.423ZM128.443 540.897H110.528V708.949H200.872V678.802H152.537V540.898C144.777 540.898 137.243 540.898 128.443 540.897Z" fill="url(#paint7_linear_9_207)" fill-opacity="0.8"/>
<path d="M1071.38 664.906C1070.51 674.04 1064.07 679.051 1052.7 679.341C1047.26 679.48 1041.81 679.365 1035.77 679.365C1035.77 642.52 1035.77 605.674 1035.77 568.828C1044.65 569.334 1069.46 565.841 1070.11 579.516C1071.09 600.195 1071.87 621.259 1072.53 641.947C1072.78 649.623 1072.11 657.246 1071.38 664.906Z" fill="url(#paint8_linear_9_207)" fill-opacity="0.8"/>
<path d="M630.648 605.923C630.649 627.33 630.658 648.226 630.645 669.123C630.638 682.037 616.709 681.415 607.318 681.409C579.809 681.392 591.116 641.242 591.173 622.778C591.207 611.817 582.972 572.869 597.806 568.624C608.318 565.616 629.418 564.176 630.447 579.428C631.029 588.067 630.649 596.748 630.648 605.923Z" fill="url(#paint9_linear_9_207)" fill-opacity="0.8"/>
<path d="M271.435 647.296C270.052 646.138 268.388 644.872 268.58 643.827C272.103 624.652 275.867 605.506 279.518 586.346C279.896 584.362 279.886 582.33 281.142 580.219C285.448 602.434 289.754 624.649 294.143 647.291C286.301 647.291 279.16 647.291 271.435 647.296Z" fill="url(#paint10_linear_9_207)" fill-opacity="0.8"/>
<path d="M1213.21 572.391C1214.43 575.814 1216.23 578.848 1216.31 581.911C1216.55 591.028 1216.62 600.187 1215.78 609.27C1214.52 622.84 1189.56 618.155 1180.65 618.155C1180.65 601.789 1180.65 585.745 1180.65 569.249C1189.06 569.249 1197.44 569.044 1205.79 569.376C1208.24 569.473 1210.6 571.093 1213.21 572.391Z" fill="url(#paint11_linear_9_207)" fill-opacity="0.8"/>
<path d="M648.557 378.613C648.889 382.103 649.363 386.504 649.057 388.113C639.937 385.24 632.557 381.613 623.557 378.281C617.129 376.098 615.322 370.581 617.835 367.145C629.557 351.113 647.557 368.113 648.557 378.613Z" fill="url(#paint12_linear_9_207)" fill-opacity="0.8"/>
<path d="M716.877 363.323C723.048 357.984 729.222 355.52 734.154 359.883C744.385 368.933 715.463 388.592 710.057 392.113C707.506 381.769 710.706 368.663 716.877 363.323Z" fill="url(#paint13_linear_9_207)" fill-opacity="0.8"/>
<path d="M634.185 409.681C629.758 410.015 612.514 414.112 612.057 405.613C611.462 394.529 631.802 398.888 634.557 406.113C634.647 406.349 635.078 409.218 634.185 409.681Z" fill="url(#paint14_linear_9_207)" fill-opacity="0.8"/>
</g>
<path d="M857.671 585.935C863.43 602.151 869.084 617.984 874.737 633.817C874.987 633.764 875.238 633.71 875.488 633.657C875.488 604.282 875.488 574.907 875.488 545.257C886.162 545.257 896.532 545.257 907.106 545.257C907.106 600.124 907.106 654.862 907.106 710.065C896.8 710.065 886.684 710.174 876.577 709.907C875.493 709.879 873.984 707.839 873.484 706.442C863.418 678.289 853.476 650.091 843.49 621.909C842.848 620.098 842.053 618.342 840.75 615.135C840.75 647.592 840.75 678.558 840.75 709.793C830.275 709.793 820.204 709.793 809.843 709.793C809.843 655.078 809.843 600.337 809.843 544.963C820.472 544.963 831.213 544.895 841.949 545.086C842.855 545.102 844.161 546.698 844.555 547.816C848.974 560.366 853.25 572.966 857.671 585.935Z" fill="#FDFDFD"/>
<path d="M950.557 710.078C942.083 710.078 934.109 710.078 925.846 710.078C925.846 654.842 925.846 599.809 925.846 544.285C938.19 544.285 950.469 544.048 962.733 544.357C973.504 544.628 984.344 544.871 995.001 546.276C1010.18 548.277 1021.42 559.383 1022.33 574.713C1023.82 599.431 1024.11 624.233 1024.39 649.006C1024.5 658.441 1023.63 667.949 1022.42 677.324C1020.27 694.095 1009.3 705.25 990.794 707.877C977.708 709.735 964.313 709.422 950.557 710.078ZM988.915 659.031C989.103 654.04 989.559 649.041 989.432 644.058C988.911 623.778 988.293 603.498 987.519 583.226C987.337 578.453 984.65 574.867 979.773 574.215C973.426 573.366 966.987 573.213 960.404 572.748C960.404 591.453 960.404 609.258 960.404 627.064C960.404 644.997 960.404 662.931 960.404 681.112C965.173 681.112 969.477 681.224 973.773 681.088C982.75 680.804 987.831 675.891 988.519 666.937C988.698 664.614 988.699 662.278 988.915 659.031Z" fill="#FDFDFD"/>
<path d="M585.462 553.01C593.483 545.653 602.853 542.975 613.121 543.14C624.247 543.319 635.472 542.924 646.468 544.284C662.065 546.213 672.886 558.111 674.473 573.926C675.35 582.675 675.571 591.515 675.618 600.317C675.738 622.815 675.859 645.319 675.392 667.809C675.253 674.473 673.785 681.286 671.837 687.7C666.885 704.01 653.984 710.739 638.387 711.746C626.731 712.498 614.717 711.936 603.222 709.913C587.799 707.199 577.937 695.48 575.623 679.923C574.942 675.342 574.597 670.67 574.582 666.038C574.494 638.872 574.326 611.704 574.664 584.543C574.805 573.166 577.036 562.117 585.462 553.01ZM640.558 608.613C640.558 600.119 640.858 591.609 640.398 583.14C640.233 580.094 639.097 575.986 636.917 574.373C630.153 569.368 622.093 569.895 614.628 572.548C608.495 574.727 608.901 580.909 608.919 586.177C608.962 599.331 609.424 612.484 609.391 625.637C609.355 640.288 608.856 654.938 608.753 669.591C608.682 679.671 612.238 683.108 622.138 683.115C624.303 683.117 626.469 683.16 628.633 683.106C636.416 682.913 640.552 678.741 640.555 671.071C640.565 650.585 640.558 630.099 640.558 608.613Z" fill="#FEFEFE"/>
<path d="M1041.48 606.113C1041.48 585.331 1041.48 565.048 1041.48 544.3C1052.3 544.3 1062.75 544.203 1073.2 544.326C1084.85 544.464 1096.5 544.606 1108.14 545.102C1122.73 545.724 1130.43 551.269 1133.75 565.361C1138.45 585.308 1138.11 605.581 1133.87 625.598C1131.81 635.331 1128.41 638.453 1117.96 644.123C1125.86 665.907 1133.77 687.739 1141.81 709.901C1129.39 709.901 1117.45 709.901 1105.03 709.901C1098.83 689.781 1092.58 669.477 1086.34 649.237C1082.34 649.237 1078.71 649.237 1074.68 649.237C1074.68 669.423 1074.68 689.491 1074.68 709.816C1063.53 709.816 1052.79 709.816 1041.48 709.816C1041.48 675.435 1041.48 641.024 1041.48 606.113ZM1100.34 575.872C1098.44 574.968 1096.58 573.38 1094.64 573.285C1088.05 572.959 1081.44 573.16 1074.79 573.16C1074.79 589.332 1074.79 605.061 1074.79 621.105C1080.98 621.105 1086.95 621.266 1092.9 621.059C1098.55 620.863 1102.1 618.119 1102.53 612.394C1103.19 603.49 1103.14 594.511 1102.95 585.574C1102.88 582.57 1101.46 579.597 1100.34 575.872Z" fill="#FEFEFE"/>
<path d="M725.75 646.114C725.752 654.278 725.663 661.944 725.78 669.607C725.913 678.364 730.708 683.035 739.399 683.113C741.065 683.128 742.732 683.142 744.397 683.11C752.298 682.96 756.566 678.599 756.562 670.658C756.542 631.169 756.514 591.681 756.489 552.192C756.488 549.89 756.489 547.588 756.489 545.103C767.708 545.103 778.588 545.103 789.782 545.103C789.782 548.583 789.787 551.875 789.782 555.166C789.719 594.653 789.878 634.142 789.504 673.626C789.289 696.332 775.114 710.93 752.462 711.943C742.373 712.394 732.047 712.357 722.128 710.724C706.102 708.086 694.447 694.266 692.612 677.548C691.961 671.612 691.62 665.613 691.605 659.641C691.514 623.152 691.559 586.662 691.558 550.172C691.558 548.362 691.558 546.552 691.558 544.713C702.929 544.713 713.908 544.713 725.75 544.713C725.75 578.178 725.75 611.896 725.75 646.114Z" fill="#FEFEFE"/>
<path d="M347.56 690.163C346.575 696.987 345.593 703.367 344.586 709.911C333.319 709.911 322.209 709.911 310.908 709.911C321.009 654.724 331.074 599.736 341.182 544.513C356.496 544.513 371.933 544.513 387.602 544.513C398.235 599.54 408.873 654.59 419.558 709.879C408.339 709.879 397.228 709.879 385.379 709.879C383.672 699.933 381.929 689.777 380.142 679.364C370.119 679.364 360.008 679.364 349.321 679.364C348.755 682.694 348.159 686.206 347.56 690.163ZM357.413 649.668C363.052 649.668 368.69 649.668 374.882 649.668C371.416 627.471 368.017 605.693 364.617 583.915C363.625 585.984 363.633 587.976 363.335 589.921C360.452 608.704 357.48 627.474 354.699 646.272C354.547 647.296 355.861 648.537 357.413 649.668Z" fill="#FDFDFD"/>
<path d="M156.558 622.119C158.873 637.012 161.186 651.467 163.499 665.922C163.7 665.88 163.9 665.837 164.101 665.795C170.943 625.429 177.785 585.063 184.658 544.515C194.91 544.515 205.021 544.515 215.496 544.515C205.007 599.647 194.541 654.652 184.035 709.87C170.368 709.87 156.763 709.87 142.651 709.87C131.887 654.891 121.102 599.805 110.266 544.459C121.815 544.459 132.769 544.459 144.125 544.459C148.27 570.212 152.413 595.946 156.558 622.119Z" fill="#FDFDFD"/>
<path d="M515.559 600.104C515.559 604.583 515.559 608.563 515.559 612.919C529.15 612.919 542.556 612.919 556.322 612.919C556.322 623.007 556.322 632.732 556.322 642.769C543.085 642.769 529.666 642.769 515.69 642.769C515.69 665.017 515.69 687.362 515.69 709.894C504.194 709.894 493.253 709.894 481.962 709.894C481.962 654.916 481.962 599.895 481.962 544.571C507.922 544.571 533.842 544.571 560.156 544.571C560.156 554.116 560.156 563.829 560.156 573.941C545.594 573.941 530.855 573.941 515.559 573.941C515.559 582.751 515.559 591.179 515.559 600.104Z" fill="#FDFDFD"/>
<path d="M244.559 544.996C251.007 544.997 256.955 544.997 263.081 544.997C263.081 590.222 263.081 634.976 263.081 680.189C275.811 680.189 288.372 680.189 301.243 680.189C301.243 690.221 301.243 699.804 301.243 709.744C277.726 709.744 254.001 709.744 229.914 709.744C229.914 655.167 229.914 600.322 229.914 544.996C234.552 544.996 239.305 544.996 244.559 544.996Z" fill="#FCFCFC"/>
<path fill-rule="evenodd" clip-rule="evenodd" d="M1212.75 697.245L1212.75 700.725L1212.75 697.245ZM1212.75 700.725L1212.75 703.866L1212.75 700.725Z" fill="url(#paint15_linear_9_207)"/>
<path fill-rule="evenodd" clip-rule="evenodd" d="M1212.75 706.608L1212.75 703.866C1212.75 705.832 1212.75 707.801 1212.75 709.774L1212.75 706.608ZM1212.75 697.245L1212.75 700.725L1212.75 703.866C1212.75 702.818 1212.75 701.771 1212.75 700.725C1212.75 699.564 1212.75 698.404 1212.75 697.245Z" fill="url(#paint16_linear_9_207)"/>
<path fill-rule="evenodd" clip-rule="evenodd" d="M1212.75 700.725L1212.75 697.245C1212.75 698.404 1212.75 699.564 1212.75 700.725C1212.75 701.771 1212.75 702.818 1212.75 703.866L1212.75 700.725ZM1212.75 703.866C1212.75 705.832 1212.75 707.801 1212.75 709.774L1212.75 706.608L1212.75 703.866Z" fill="url(#paint17_linear_9_207)"/>
<path fill-rule="evenodd" clip-rule="evenodd" d="M816.453 544.957C816.457 544.957 816.461 544.957 816.465 544.957H816.453Z" fill="url(#paint18_linear_9_207)"/>
<path fill-rule="evenodd" clip-rule="evenodd" d="M812.114 544.962H812.129L812.148 544.962C812.136 544.962 812.125 544.962 812.114 544.962Z" fill="url(#paint19_linear_9_207)"/>
<path fill-rule="evenodd" clip-rule="evenodd" d="M666.121 416.376C678.75 371.793 659.682 317.847 635.717 280.51C632.773 275.924 629.182 269.896 623.727 268.008C617.381 265.524 611.348 252.001 607.231 242.772C605.723 239.393 604.472 236.588 603.557 235.113C595.082 221.461 590.155 203.818 588.89 195.963C588.812 195.476 588.747 195.026 588.697 194.617C588.981 196.045 589.834 197.356 591.18 198.017C597.818 201.277 604.784 203.903 611.305 207.368C625.894 215.121 643.708 227.892 651.941 236.861C660.175 245.83 661.564 249.875 665.331 256.685C676.479 276.84 681.825 299.039 685.46 321.565C687.99 337.243 690.256 352.963 692.512 368.683L692.521 368.749C694.191 380.356 695.862 391.97 697.641 403.56C698.583 409.694 700.574 415.667 702.002 421.395C707.057 439.113 737.219 446.152 752.392 446.148C927.218 446.095 1102.05 446.111 1276.87 446.121C1298.42 446.122 1311.55 459.036 1311.56 480.148C1311.56 516.479 1311.56 552.811 1311.56 589.143C1311.56 636.975 1311.61 684.806 1311.53 732.638C1311.49 755.06 1298.57 768.102 1276.51 768.103C901.028 768.123 525.542 768.122 150.057 768.125C126.557 768.121 103.057 768.308 79.5584 768.058C56.7812 767.816 43.9881 749.449 44.4111 732.761C44.9937 709.777 44.5586 686.766 44.5582 663.768C44.5575 619.603 44.4331 575.437 44.6074 531.273C44.693 509.596 57.4947 495.885 79.5747 495.939C220.569 496.278 361.564 496.121 502.558 496.072C506.529 496.07 510.544 495.716 514.461 495.065C523.076 493.632 529.562 487.421 528.593 478.347C528.347 476.04 528.394 473.671 528.585 471.354C529.32 462.458 532.371 454.519 541.116 450.982C547.256 448.499 554.024 446.603 560.59 446.327C576.395 445.664 592.251 446.346 608.078 446.029C621.043 445.769 633.835 443.787 645.587 437.965C656.464 432.577 662.872 427.845 666.121 416.376ZM813.536 544.961C813.642 544.961 813.749 544.961 813.855 544.961C813.883 544.961 813.912 544.961 813.94 544.96C813.982 544.96 814.024 544.96 814.066 544.96L813.94 544.96L813.855 544.961C813.883 544.961 813.912 544.961 813.94 544.96C813.982 544.96 814.024 544.96 814.066 544.96C814.359 544.96 814.651 544.96 814.944 544.959C814.977 544.959 815.01 544.959 815.043 544.959C815.061 544.959 815.08 544.959 815.098 544.959C815.117 544.959 815.135 544.959 815.154 544.959C815.331 544.959 815.508 544.959 815.685 544.958C815.732 544.958 815.779 544.958 815.826 544.958C815.905 544.958 815.984 544.958 816.062 544.958C816.093 544.958 816.123 544.958 816.153 544.958L816.453 544.957H816.465C824.96 544.957 833.455 544.935 841.949 545.086C842.855 545.102 844.161 546.698 844.555 547.816C848.038 557.707 851.432 567.63 854.827 577.552C855.258 578.812 855.689 580.073 856.12 581.333C856.602 582.739 857.083 584.146 857.565 585.552C863.254 601.652 868.935 617.758 874.737 633.817L875.488 633.657V545.257H907.106V710.065C904.783 710.065 902.4 710.07 900.094 710.076C899.107 710.078 898.119 710.081 897.135 710.082C890.241 710.096 883.404 710.088 876.577 709.907C875.493 709.879 873.984 707.839 873.484 706.442C863.418 678.289 853.476 650.091 843.49 621.909C842.848 620.098 842.053 618.342 840.75 615.135V709.793H809.843V544.963C810.595 544.963 811.348 544.963 812.101 544.962C812.105 544.962 812.11 544.962 812.114 544.962C812.125 544.962 812.136 544.962 812.148 544.962L813.376 544.961L813.536 544.961ZM814.066 544.96C814.359 544.96 814.651 544.96 814.944 544.959C814.977 544.959 815.01 544.959 815.043 544.959C815.061 544.959 815.08 544.959 815.098 544.959C815.117 544.959 815.135 544.959 815.154 544.959C815.331 544.959 815.508 544.959 815.685 544.958C815.732 544.958 815.779 544.958 815.826 544.958C815.905 544.958 815.984 544.958 816.062 544.958L815.826 544.958L815.685 544.958L815.154 544.959L815.098 544.959L815.043 544.959L814.944 544.959L814.066 544.96ZM725.731 654.493C725.715 659.71 725.705 664.661 725.78 669.607C725.913 678.364 730.708 683.035 739.399 683.113C741.065 683.128 742.732 683.142 744.397 683.11C752.298 682.96 756.566 678.599 756.562 670.658C756.548 642.581 756.53 614.503 756.511 586.425L756.489 552.192C756.488 550.672 756.488 549.151 756.489 547.577C756.489 547.565 756.489 547.552 756.489 547.539L756.489 545.103H789.782L789.783 548.484C789.783 548.497 789.783 548.509 789.783 548.521C789.784 550.773 789.785 552.97 789.782 555.166C789.719 594.652 789.878 634.142 789.504 673.626C789.289 696.332 775.114 710.93 752.462 711.943C742.373 712.394 732.047 712.357 722.128 710.724C706.102 708.086 694.447 694.266 692.612 677.548C691.961 671.612 691.62 665.613 691.605 659.641C691.51 621.332 691.558 583.022 691.558 544.713H725.75V645.613C725.751 648.573 725.741 651.534 725.731 654.493ZM951.057 710.077C964.313 709.422 977.708 709.735 990.794 707.878C1009.3 705.25 1020.27 694.095 1022.42 677.324C1023.63 667.949 1024.5 658.441 1024.39 649.006C1024.11 624.233 1023.82 599.432 1022.33 574.713C1021.42 559.383 1010.18 548.277 995.001 546.276C984.306 544.866 973.504 544.627 962.733 544.357C950.44 544.048 938.142 544.286 925.846 544.286V710.078H927.151C934.953 710.078 942.556 710.078 951.057 710.077ZM585.208 553.265C577.036 562.117 574.805 573.167 574.664 584.543C574.326 611.704 574.494 638.873 574.582 666.038C574.597 670.67 574.942 675.342 575.623 679.923C577.937 695.48 587.799 707.199 603.222 709.913C614.717 711.936 626.731 712.498 638.387 711.746C653.984 710.739 666.885 704.01 671.837 687.7C673.785 681.286 675.253 674.473 675.392 667.809C675.858 645.419 675.739 623.014 675.619 600.615C675.6 591.713 675.361 582.789 674.472 573.927C672.886 558.112 662.065 546.213 646.468 544.284C635.472 542.924 624.247 543.319 613.121 543.14C602.853 542.975 593.483 545.653 585.208 553.265ZM1041.48 606.613V709.816H1074.68V649.237H1086.34L1105.03 709.901H1141.81L1117.96 644.124C1128.41 638.453 1131.81 635.331 1133.87 625.598C1138.1 605.581 1138.45 585.308 1133.75 565.361C1130.43 551.269 1122.73 545.724 1108.14 545.103C1096.5 544.606 1084.85 544.464 1073.2 544.326C1062.75 544.203 1052.3 544.301 1041.48 544.301C1041.48 565.048 1041.48 585.331 1041.48 606.613ZM347.563 689.719L349.321 679.364H380.142L385.379 709.879H419.558L387.602 544.513H341.182L310.908 709.912L344.587 709.904C345.594 703.362 346.576 696.985 347.563 689.719ZM156.555 621.681L144.125 544.46H110.266L142.651 709.871H184.035L215.496 544.515H184.658L164.101 665.796L163.498 665.918C161.186 651.465 158.873 637.011 156.555 621.681ZM515.559 573.942H560.156V544.571H481.962V709.894H515.69V642.769H556.322V612.919H515.559L515.559 573.942ZM244.059 544.996H229.914V709.744H301.243V680.189H263.081V544.997C256.955 544.997 251.007 544.997 244.059 544.996Z" fill="url(#paint20_linear_9_207)"/>
<path fill-rule="evenodd" clip-rule="evenodd" d="M645.587 437.965C633.835 443.787 621.043 445.769 608.078 446.029C592.251 446.346 576.395 445.664 560.59 446.327C554.024 446.603 547.256 448.499 541.116 450.982C532.371 454.519 529.32 462.458 528.585 471.354C528.394 473.671 528.347 476.04 528.593 478.347C529.562 487.421 523.076 493.632 514.461 495.065C510.544 495.716 506.529 496.07 502.558 496.072C361.564 496.121 220.569 496.278 79.5747 495.939C57.4947 495.885 44.693 509.596 44.6074 531.273C44.4331 575.437 44.5575 619.603 44.5582 663.768C44.5586 686.766 44.9937 709.777 44.4111 732.761C43.9881 749.449 56.7812 767.816 79.5584 768.058C103.057 768.308 126.557 768.121 150.057 768.125C525.542 768.122 901.028 768.123 1276.51 768.103C1298.57 768.102 1311.49 755.06 1311.53 732.638C1311.61 684.806 1311.56 636.975 1311.56 589.143C1311.56 552.811 1311.56 516.479 1311.56 480.148C1311.55 459.036 1298.42 446.122 1276.87 446.121C1102.05 446.111 927.218 446.095 752.392 446.148C737.219 446.152 707.057 439.113 702.002 421.395C700.574 415.667 698.583 409.694 697.641 403.56C695.861 391.967 694.24 380.351 692.521 368.749L692.512 368.683C690.256 352.963 687.99 337.243 685.46 321.565C681.825 299.039 676.479 276.84 665.331 256.685C661.564 249.875 660.175 245.83 651.941 236.861C643.708 227.892 625.894 215.121 611.305 207.368C604.784 203.903 597.818 201.277 591.18 198.017C589.834 197.356 588.981 196.045 588.697 194.617C588.747 195.026 588.812 195.476 588.89 195.963C590.155 203.818 595.082 221.461 603.557 235.113C604.472 236.588 605.723 239.393 607.231 242.772C611.348 252.001 617.381 265.524 623.727 268.008C629.182 269.896 632.773 275.924 635.717 280.51C659.682 317.847 678.75 371.793 666.121 416.376C662.872 427.845 656.464 432.577 645.587 437.965ZM725.75 645.613V544.713H691.558C691.558 583.022 691.51 621.332 691.605 659.641C691.62 665.613 691.961 671.612 692.612 677.548C694.447 694.266 706.102 708.086 722.128 710.724C732.047 712.357 742.373 712.394 752.462 711.943C775.114 710.93 789.289 696.332 789.504 673.626C789.878 634.142 789.719 594.652 789.782 555.166C789.785 552.97 789.784 550.773 789.783 548.521C789.783 548.509 789.783 548.497 789.783 548.484L789.782 545.103H756.489L756.489 547.539C756.489 547.552 756.489 547.565 756.489 547.577C756.488 549.151 756.488 550.672 756.489 552.192L756.511 586.425C756.53 614.503 756.548 642.581 756.562 670.658C756.566 678.599 752.298 682.96 744.397 683.11C742.732 683.142 741.065 683.128 739.399 683.113C730.708 683.035 725.913 678.364 725.78 669.607C725.705 664.661 725.715 659.71 725.731 654.493C725.741 651.534 725.751 648.573 725.75 645.613ZM951.057 710.077C942.556 710.078 934.953 710.078 927.151 710.078H925.846V544.286C938.142 544.286 950.44 544.048 962.733 544.357C973.504 544.627 984.306 544.866 995.001 546.276C1010.18 548.277 1021.42 559.383 1022.33 574.713C1023.82 599.432 1024.11 624.233 1024.39 649.006C1024.5 658.441 1023.63 667.949 1022.42 677.324C1020.27 694.095 1009.3 705.25 990.794 707.878C977.708 709.735 964.313 709.422 951.057 710.077ZM574.664 584.543C574.805 573.167 577.036 562.117 585.208 553.265C593.483 545.653 602.853 542.975 613.121 543.14C624.247 543.319 635.472 542.924 646.468 544.284C662.065 546.213 672.886 558.112 674.472 573.927C675.361 582.789 675.6 591.713 675.619 600.615C675.739 623.012 675.858 645.421 675.392 667.809C675.253 674.473 673.785 681.286 671.837 687.7C666.885 704.01 653.984 710.739 638.387 711.746C626.731 712.498 614.717 711.936 603.222 709.913C587.799 707.199 577.937 695.48 575.623 679.923C574.942 675.342 574.597 670.67 574.582 666.038C574.494 638.873 574.326 611.704 574.664 584.543ZM1041.48 709.816V606.613C1041.48 585.331 1041.48 565.048 1041.48 544.301C1052.3 544.301 1062.75 544.203 1073.2 544.326C1084.85 544.464 1096.5 544.606 1108.14 545.103C1122.73 545.724 1130.43 551.269 1133.75 565.361C1138.45 585.308 1138.1 605.581 1133.87 625.598C1131.81 635.331 1128.41 638.453 1117.96 644.124L1141.81 709.901H1105.03L1086.34 649.237H1074.68V709.816H1041.48ZM349.321 679.364L347.563 689.719C346.576 696.985 345.594 703.362 344.587 709.904L310.908 709.912L341.182 544.513H387.602L419.558 709.879H385.379L380.142 679.364H349.321ZM144.125 544.46L156.555 621.681C158.873 637.011 161.186 651.465 163.498 665.918L164.101 665.796L184.658 544.515H215.496L184.035 709.871H142.651L110.266 544.46H144.125ZM515.559 573.942L515.559 612.919H556.322V642.769H515.69V709.894H481.962V544.571H560.156V573.942H515.559ZM229.914 544.996H244.059C251.007 544.997 256.955 544.997 263.081 544.997V680.189H301.243V709.744H229.914V544.996ZM812.148 544.962L813.376 544.961L813.536 544.961L813.855 544.961L813.94 544.96L814.066 544.96L814.944 544.959L815.043 544.959L815.098 544.959L815.154 544.959L815.685 544.958L815.826 544.958L816.062 544.958L816.153 544.958L816.453 544.957H816.465C824.96 544.957 833.455 544.935 841.949 545.086C842.855 545.102 844.161 546.698 844.555 547.816C848.038 557.707 851.432 567.63 854.827 577.552L856.12 581.333C856.602 582.739 857.083 584.146 857.565 585.552C863.254 601.652 868.935 617.758 874.737 633.817L875.488 633.657V545.257H907.106V710.065C904.783 710.065 902.4 710.07 900.094 710.076C899.107 710.078 898.119 710.081 897.135 710.082C890.242 710.096 883.403 710.088 876.577 709.907C875.493 709.879 873.984 707.839 873.484 706.442C863.418 678.289 853.476 650.091 843.49 621.909C842.848 620.098 842.053 618.342 840.75 615.135V709.793H809.843V544.963C810.595 544.963 811.348 544.963 812.101 544.962C812.105 544.962 812.11 544.962 812.114 544.962H812.129L812.148 544.962Z" fill="url(#paint21_linear_9_207)"/>
<path fill-rule="evenodd" clip-rule="evenodd" d="M702.002 421.395C707.057 439.113 737.219 446.152 752.392 446.148C927.218 446.095 1102.05 446.111 1276.87 446.121C1298.42 446.122 1311.55 459.036 1311.56 480.148C1311.56 516.479 1311.56 552.811 1311.56 589.143C1311.56 636.975 1311.61 684.806 1311.53 732.638C1311.49 755.06 1298.57 768.102 1276.51 768.103C901.028 768.123 525.542 768.122 150.057 768.125C126.557 768.121 103.057 768.308 79.5584 768.058C56.7812 767.816 43.9881 749.449 44.4111 732.761C44.9937 709.777 44.5586 686.766 44.5582 663.768C44.5575 619.603 44.4331 575.437 44.6074 531.273C44.693 509.596 57.4947 495.885 79.5747 495.939C220.569 496.278 361.564 496.121 502.558 496.072C506.529 496.07 510.544 495.716 514.461 495.065C523.076 493.632 529.562 487.421 528.593 478.347C528.347 476.04 528.394 473.671 528.585 471.354C529.32 462.458 532.371 454.519 541.116 450.982C547.256 448.499 554.024 446.603 560.59 446.327C576.395 445.664 592.251 446.346 608.078 446.029C621.043 445.769 633.835 443.787 645.587 437.965C656.464 432.577 662.872 427.845 666.121 416.376C678.75 371.793 659.682 317.847 635.717 280.51C632.773 275.924 629.182 269.896 623.727 268.008C617.381 265.524 611.348 252.001 607.231 242.772C605.723 239.393 604.472 236.588 603.557 235.113C595.082 221.461 590.155 203.818 588.89 195.963C589.499 196.834 590.358 197.614 591.18 198.017C597.818 201.277 604.784 203.903 611.305 207.368C625.894 215.121 643.708 227.892 651.941 236.861C660.175 245.83 661.564 249.875 665.331 256.685C676.479 276.84 681.825 299.039 685.46 321.565C687.99 337.243 690.256 352.963 692.512 368.683C694.184 380.308 695.859 391.952 697.641 403.56C698.583 409.694 700.574 415.667 702.002 421.395ZM725.731 654.493C725.715 659.71 725.705 664.661 725.78 669.607C725.913 678.364 730.708 683.035 739.399 683.113C741.065 683.128 742.732 683.142 744.397 683.11C752.298 682.96 756.566 678.599 756.562 670.658C756.548 642.581 756.53 614.503 756.511 586.425L756.489 552.192C756.488 550.654 756.489 549.116 756.489 547.577V547.539L756.489 545.103H789.782L789.783 548.484V548.521C789.783 550.736 789.785 552.951 789.782 555.166C789.719 594.652 789.878 634.142 789.504 673.626C789.289 696.332 775.114 710.93 752.462 711.943C742.373 712.394 732.047 712.357 722.128 710.724C706.102 708.086 694.447 694.266 692.612 677.548C691.961 671.612 691.62 665.613 691.605 659.641C691.51 621.332 691.558 583.022 691.558 544.713H725.75V645.613C725.751 648.573 725.741 651.534 725.731 654.493ZM857.565 585.552C856.651 582.886 855.739 580.219 854.827 577.552C851.432 567.63 848.038 557.707 844.555 547.816C844.161 546.698 842.855 545.102 841.949 545.086C833.455 544.935 824.96 544.957 816.465 544.957L815.826 544.958L815.685 544.958L815.154 544.959L815.098 544.959L813.94 544.96L813.855 544.961L813.536 544.961L813.376 544.961L812.129 544.962H812.101C811.348 544.963 810.595 544.963 809.843 544.963V709.793H840.75V615.135C842.053 618.342 842.848 620.098 843.49 621.909C853.476 650.091 863.418 678.289 873.484 706.442C873.984 707.839 875.493 709.879 876.577 709.907C883.407 710.088 890.24 710.096 897.135 710.082C898.119 710.081 899.107 710.078 900.094 710.076C902.431 710.087 904.769 710.065 907.106 710.065V545.257H875.488V633.657L874.737 633.817C868.935 617.758 863.254 601.652 857.565 585.552ZM951.057 710.077C964.313 709.422 977.708 709.735 990.794 707.878C1009.3 705.25 1020.27 694.095 1022.42 677.324C1023.63 667.949 1024.5 658.441 1024.39 649.006C1024.11 624.233 1023.82 599.432 1022.33 574.713C1021.42 559.383 1010.18 548.277 995.001 546.276C984.306 544.866 973.504 544.627 962.733 544.357C950.44 544.048 938.142 544.286 925.846 544.286V710.078H927.151C934.953 710.078 942.556 710.078 951.057 710.077ZM585.208 553.265C577.036 562.117 574.805 573.167 574.664 584.543C574.326 611.704 574.494 638.873 574.582 666.038C574.597 670.67 574.942 675.342 575.623 679.923C577.937 695.48 587.799 707.199 603.222 709.913C614.717 711.936 626.731 712.498 638.387 711.746C653.984 710.739 666.885 704.01 671.837 687.7C673.785 681.286 675.253 674.473 675.392 667.809C675.858 645.421 675.739 623.012 675.619 600.615C675.6 591.713 675.361 582.789 674.472 573.927C672.886 558.112 662.065 546.213 646.468 544.284C635.472 542.924 624.247 543.319 613.121 543.14C602.853 542.975 593.483 545.653 585.208 553.265ZM1041.48 606.613V709.816H1074.68V649.237H1086.34L1105.03 709.901H1141.81L1117.96 644.124C1128.41 638.453 1131.81 635.331 1133.87 625.598C1138.1 605.581 1138.45 585.308 1133.75 565.361C1130.43 551.269 1122.73 545.724 1108.14 545.103C1096.5 544.606 1084.85 544.464 1073.2 544.326C1062.75 544.203 1052.3 544.301 1041.48 544.301C1041.48 565.048 1041.48 585.331 1041.48 606.613ZM347.563 689.719L349.321 679.364H380.142L385.379 709.879H419.558L387.602 544.513H341.182L310.908 709.912L344.587 709.904C345.594 703.362 346.576 696.985 347.563 689.719ZM156.555 621.681L144.125 544.46H110.266L142.651 709.871H184.035L215.496 544.515H184.658L164.101 665.796L163.498 665.918C161.186 651.465 158.873 637.011 156.555 621.681ZM515.559 573.942H560.156V544.571H481.962V709.894H515.69V642.769H556.322V612.919H515.559L515.559 573.942ZM244.059 544.996H229.914V709.744H301.243V680.189H263.081V544.997C256.955 544.997 251.007 544.997 244.059 544.996Z" fill="url(#paint22_linear_9_207)"/>
<path d="M988.848 659.489C988.699 662.278 988.698 664.614 988.519 666.937C987.831 675.891 982.75 680.804 973.773 681.088C969.477 681.224 965.173 681.112 960.404 681.112C960.404 644.99 960.404 608.869 960.404 572.748C966.987 573.213 973.426 573.366 979.773 574.215C984.65 574.868 987.337 578.453 987.519 583.226C988.293 603.498 988.911 623.778 989.432 644.058C989.559 649.042 989.103 654.04 988.848 659.489Z" fill="url(#paint23_linear_9_207)"/>
<path d="M640.558 609.113C640.558 630.099 640.565 650.585 640.555 671.071C640.552 678.742 636.416 682.913 628.633 683.106C626.469 683.16 624.303 683.117 622.138 683.115C612.238 683.108 608.682 679.671 608.753 669.591C608.856 654.939 609.355 640.289 609.391 625.637C609.424 612.484 608.962 599.331 608.919 586.177C608.901 580.91 608.495 574.727 614.628 572.548C622.093 569.895 630.152 569.368 636.917 574.373C639.097 575.986 640.233 580.094 640.398 583.14C640.858 591.609 640.558 600.119 640.558 609.113Z" fill="url(#paint24_linear_9_207)"/>
<path d="M356.953 649.673C355.861 648.537 354.548 647.296 354.699 646.272C357.48 627.474 360.452 608.704 363.335 589.921C363.633 587.976 363.625 585.984 364.617 583.915C368.017 605.693 371.416 627.471 374.882 649.668C368.69 649.668 363.052 649.668 356.953 649.673Z" fill="url(#paint25_linear_9_207)"/>
<path d="M1100.5 576.241C1101.46 579.597 1102.88 582.571 1102.95 585.574C1103.14 594.511 1103.19 603.49 1102.53 612.395C1102.1 618.119 1098.55 620.863 1092.9 621.059C1086.95 621.266 1080.98 621.105 1074.79 621.105C1074.79 605.061 1074.79 589.332 1074.79 573.16C1081.44 573.16 1088.05 572.959 1094.64 573.285C1096.58 573.38 1098.44 574.968 1100.5 576.241Z" fill="url(#paint26_linear_9_207)"/>
<path d="M647.58 382.166C647.57 383.769 647.579 384.932 647.538 386.092C647.527 386.395 647.363 386.692 647.385 386.62C640.185 383.804 632.922 381.126 625.796 378.121C620.722 375.981 618.289 371.972 619.7 368.184C621.336 363.789 625.047 362.875 629.389 363.07C639.167 363.509 647.113 371.561 647.58 382.166Z" fill="url(#paint27_linear_9_207)"/>
<path d="M718.734 364.257C722.557 360.884 723.588 360.599 726.164 359.858C728.067 359.311 731.229 359.627 732.374 360.884C733.706 362.347 734.911 365.113 733.671 367.424C731.542 371.391 728.725 375.181 725.475 378.305C720.969 382.635 715.815 386.291 710.586 390.52C708.572 380.38 714.911 367.63 718.734 364.257Z" fill="url(#paint28_linear_9_207)"/>
<path d="M631.874 409.004C627.416 410.319 622.946 410.395 618.746 409.918C616.057 409.613 613.927 408.195 613.845 406.297C613.763 404.398 615.459 401.576 617.204 400.608C621.951 397.976 631.586 402.604 633.198 407.854C633.269 408.086 633.198 408.613 631.874 409.004Z" fill="url(#paint29_linear_9_207)"/>
<path d="M1143.68 548.906C1143.23 547.277 1142.89 546.039 1142.44 544.403C1153.73 544.403 1164.66 544.308 1175.59 544.554C1176.64 544.577 1178.23 546.555 1178.59 547.889C1184.01 568.052 1189.26 588.259 1194.56 608.453C1194.94 609.876 1195.39 611.277 1196.16 613.871C1202.29 590.164 1208.14 567.536 1214.06 544.622C1225.61 544.622 1237.21 544.622 1249.37 544.622C1246.01 554.644 1242.74 564.683 1239.29 574.664C1230.78 599.347 1222.17 623.996 1213.67 648.685C1213.04 650.512 1212.79 652.553 1212.79 654.496C1212.72 672.815 1212.75 691.135 1212.75 709.774C1201.81 709.774 1190.92 709.774 1179.56 709.774C1179.56 700.195 1178.99 690.551 1179.67 680.997C1181.12 660.823 1177.16 641.93 1169.82 623.13C1160.34 598.836 1152.4 573.936 1143.68 548.906Z" fill="#FDFDFD"/>
<path d="M457.557 479.113C457.557 475.613 453.865 472.451 452.745 469.998C452.496 461.771 452.436 453.406 452.927 445.446C453.059 443.293 454.757 440.433 456.597 439.325C465.833 433.761 475.158 428.265 484.856 423.583C489.777 421.207 495.539 419.437 500.942 419.377C536.894 418.98 572.851 419.12 609.253 419.227C611.387 419.743 613.071 420.421 614.763 420.443C623.359 420.557 653.557 420.613 653.822 422.761C654.011 424.288 656.351 425.605 655.057 425.613C609.277 425.909 550.394 425.808 504.778 425.692C496.684 425.672 489.504 427.709 482.672 432.007C476.083 436.152 469.139 438.735 461.427 443.085C479.599 443.895 492.557 443.613 511.557 444.113C515.057 445.446 518.557 446.613 514.042 446.735C495.107 446.735 478.172 446.735 457.941 446.735C457.941 457.591 457.722 468.651 457.557 479.113Z" fill="#DCE0DF" stroke="#DCE0DF" stroke-width="2"/>
<path fill-rule="evenodd" clip-rule="evenodd" d="M437.561 471.155L195.555 474.104C195.08 474.104 194.674 474.104 194.311 474.104C193.629 474.104 193.101 474.105 192.575 474.103C182.862 474.071 173.149 474.037 163.436 474.003L163.339 474.003C129.754 473.886 96.1693 473.77 62.584 473.717C58.1241 473.71 53.5065 473.708 49.23 474.776C31.24 479.27 19.7342 494.878 19.7661 514.026L19.7875 526.797C19.8498 563.87 19.9121 600.943 19.9336 638.016C19.9409 650.663 19.9221 663.311 19.9032 675.959C19.8709 697.643 19.8386 719.326 19.9382 741.009C20.0164 758.033 25.2444 773.048 39.5428 783.503C48.6965 790.197 59.4739 792.09 70.5766 792.092C183.971 792.116 297.366 792.115 411.015 792.114L420.602 792.114C446.24 792.114 471.89 792.114 497.557 792.114H499.048H500.512H501.95H503.363C583.4 792.114 662.972 792.114 742.543 792.114C767.537 792.114 792.531 792.115 817.524 792.115C974.189 792.119 1130.85 792.122 1287.52 791.996C1293.69 791.991 1300.18 791.13 1305.99 789.135C1325.11 782.571 1336.48 764.553 1336.49 742.026C1336.49 721.314 1336.47 700.603 1336.46 679.892C1336.45 664.938 1336.43 649.984 1336.43 635.031C1336.43 619.08 1336.4 603.128 1336.38 587.177C1336.32 545.631 1336.26 504.084 1336.52 462.54C1336.67 438.856 1318.33 421.486 1295.9 421.772C1271.04 422.088 1246.18 422.008 1221.32 421.929C1212.35 421.9 1203.37 421.872 1194.4 421.862C1132.52 421.792 1070.64 421.716 1008.76 421.64C941.147 421.558 873.539 421.475 805.93 421.4C782.37 421.374 758.809 421.381 735.057 421.388L734.869 421.388C723.96 421.391 719.411 421.394 713.03 421.394C706.65 421.394 713.978 422.854 715.557 423.613C716.096 423.873 717.057 423.928 717.057 423.928C718.057 423.113 715.967 424.929 721.436 424.928H721.655C733.381 424.927 745.107 424.926 756.833 424.93C796.853 424.943 836.873 425.96 876.893 425.977C1016.36 426.038 1155.84 426.098 1295.31 425.976C1313.22 425.96 1332.2 438.242 1331.97 462.711C1331.62 499.634 1331.71 536.561 1331.81 573.488C1331.85 589.059 1331.89 604.631 1331.9 620.202C1331.92 660.199 1331.93 700.197 1331.93 740.195C1331.93 753.305 1329.19 765.45 1319.86 775.405C1310.49 785.395 1298.43 787.966 1285.51 787.978C1236.73 788.021 1187.96 788.017 1139.19 788.013H1139C1129.02 788.013 1119.04 788.012 1109.06 788.011L1097.51 788.011H982.903C682.786 788.012 382.67 788.012 82.5535 787.906C73.145 787.902 63.5112 787.454 54.3759 785.434C35.5258 781.265 24.949 764.76 24.7625 746.2C24.3253 702.675 24.3959 659.144 24.4665 615.613C24.4943 598.479 24.5221 581.344 24.5189 564.21C24.5178 558.398 24.4916 552.586 24.4653 546.774C24.4118 534.919 24.3582 523.065 24.5182 511.214C24.7729 492.357 39.4969 478.117 58.2537 478.112C89.3008 478.104 120.348 478.107 151.395 478.11C232.843 478.117 314.29 478.123 395.737 477.94C418.07 477.89 432.16 477.232 454.491 476.614L454.508 476.614L454.524 476.614L454.54 476.613L454.557 476.613L454.057 471.113L448.352 471.155H448.322H448.291H448.26H448.229H448.199L437.561 471.155Z" fill="#DCE0DF" stroke="#DCE0DF" stroke-width="5"/>
<defs>
<filter id="filter0_f_9_207" x="105.528" y="183.378" width="1254.86" height="590.122" filterUnits="userSpaceOnUse" color-interpolation-filters="sRGB">
<feFlood flood-opacity="0" result="BackgroundImageFix"/>
<feBlend mode="normal" in="SourceGraphic" in2="BackgroundImageFix" result="shape"/>
<feGaussianBlur stdDeviation="2.5" result="effect1_foregroundBlur_9_207"/>
</filter>
<linearGradient id="paint0_linear_9_207" x1="678.057" y1="183.113" x2="678.057" y2="768.189" gradientUnits="userSpaceOnUse">
<stop offset="0.384615" stop-color="#FFBB00" stop-opacity="0.8"/>
<stop offset="0.663462" stop-color="#85806F"/>
</linearGradient>
<linearGradient id="paint1_linear_9_207" x1="678.057" y1="183.113" x2="678.057" y2="768.189" gradientUnits="userSpaceOnUse">
<stop offset="0.384615" stop-color="#FFBB00" stop-opacity="0.8"/>
<stop offset="0.663462" stop-color="#85806F"/>
</linearGradient>
<linearGradient id="paint2_linear_9_207" x1="678.057" y1="183.113" x2="678.057" y2="768.189" gradientUnits="userSpaceOnUse">
<stop offset="0.384615" stop-color="#FFBB00" stop-opacity="0.8"/>
<stop offset="0.663462" stop-color="#85806F"/>
</linearGradient>
<linearGradient id="paint3_linear_9_207" x1="678.057" y1="183.113" x2="678.057" y2="768.189" gradientUnits="userSpaceOnUse">
<stop offset="0.384615" stop-color="#FFBB00" stop-opacity="0.8"/>
<stop offset="0.663462" stop-color="#85806F"/>
</linearGradient>
<linearGradient id="paint4_linear_9_207" x1="678.057" y1="183.113" x2="678.057" y2="768.189" gradientUnits="userSpaceOnUse">
<stop offset="0.384615" stop-color="#FFBB00" stop-opacity="0.8"/>
<stop offset="0.663462" stop-color="#85806F"/>
</linearGradient>
<linearGradient id="paint5_linear_9_207" x1="678.057" y1="183.113" x2="678.057" y2="768.189" gradientUnits="userSpaceOnUse">
<stop offset="0.384615" stop-color="#FFBB00" stop-opacity="0.8"/>
<stop offset="0.663462" stop-color="#85806F"/>
</linearGradient>
<linearGradient id="paint6_linear_9_207" x1="678.057" y1="183.113" x2="678.057" y2="768.189" gradientUnits="userSpaceOnUse">
<stop offset="0.384615" stop-color="#FFBB00" stop-opacity="0.8"/>
<stop offset="0.663462" stop-color="#85806F"/>
</linearGradient>
<linearGradient id="paint7_linear_9_207" x1="678.057" y1="183.113" x2="678.057" y2="768.189" gradientUnits="userSpaceOnUse">
<stop offset="0.384615" stop-color="#FFBB00" stop-opacity="0.8"/>
<stop offset="0.663462" stop-color="#85806F"/>
</linearGradient>
<linearGradient id="paint8_linear_9_207" x1="678.057" y1="183.113" x2="678.057" y2="768.189" gradientUnits="userSpaceOnUse">
<stop offset="0.384615" stop-color="#FFBB00" stop-opacity="0.8"/>
<stop offset="0.663462" stop-color="#85806F"/>
</linearGradient>
<linearGradient id="paint9_linear_9_207" x1="678.057" y1="183.113" x2="678.057" y2="768.189" gradientUnits="userSpaceOnUse">
<stop offset="0.384615" stop-color="#FFBB00" stop-opacity="0.8"/>
<stop offset="0.663462" stop-color="#85806F"/>
</linearGradient>
<linearGradient id="paint10_linear_9_207" x1="678.057" y1="183.113" x2="678.057" y2="768.189" gradientUnits="userSpaceOnUse">
<stop offset="0.384615" stop-color="#FFBB00" stop-opacity="0.8"/>
<stop offset="0.663462" stop-color="#85806F"/>
</linearGradient>
<linearGradient id="paint11_linear_9_207" x1="678.057" y1="183.113" x2="678.057" y2="768.189" gradientUnits="userSpaceOnUse">
<stop offset="0.384615" stop-color="#FFBB00" stop-opacity="0.8"/>
<stop offset="0.663462" stop-color="#85806F"/>
</linearGradient>
<linearGradient id="paint12_linear_9_207" x1="678.057" y1="183.113" x2="678.057" y2="768.189" gradientUnits="userSpaceOnUse">
<stop offset="0.384615" stop-color="#FFBB00" stop-opacity="0.8"/>
<stop offset="0.663462" stop-color="#85806F"/>
</linearGradient>
<linearGradient id="paint13_linear_9_207" x1="678.057" y1="183.113" x2="678.057" y2="768.189" gradientUnits="userSpaceOnUse">
<stop offset="0.384615" stop-color="#FFBB00" stop-opacity="0.8"/>
<stop offset="0.663462" stop-color="#85806F"/>
</linearGradient>
<linearGradient id="paint14_linear_9_207" x1="678.057" y1="183.113" x2="678.057" y2="768.189" gradientUnits="userSpaceOnUse">
<stop offset="0.384615" stop-color="#FFBB00" stop-opacity="0.8"/>
<stop offset="0.663462" stop-color="#85806F"/>
</linearGradient>
<linearGradient id="paint15_linear_9_207" x1="677.987" y1="194.617" x2="677.987" y2="768.188" gradientUnits="userSpaceOnUse">
<stop offset="0.384615" stop-color="#CF152D"/>
<stop offset="0.528846" stop-color="#63656A"/>
</linearGradient>
<linearGradient id="paint16_linear_9_207" x1="677.987" y1="194.617" x2="677.987" y2="768.188" gradientUnits="userSpaceOnUse">
<stop offset="0.384615" stop-color="#CF152D"/>
<stop offset="0.528846" stop-color="#63656A"/>
</linearGradient>
<linearGradient id="paint17_linear_9_207" x1="677.987" y1="194.617" x2="677.987" y2="768.188" gradientUnits="userSpaceOnUse">
<stop offset="0.384615" stop-color="#CF152D"/>
<stop offset="0.528846" stop-color="#63656A"/>
</linearGradient>
<linearGradient id="paint18_linear_9_207" x1="677.987" y1="194.617" x2="677.987" y2="768.188" gradientUnits="userSpaceOnUse">
<stop offset="0.384615" stop-color="#CF152D"/>
<stop offset="0.528846" stop-color="#63656A"/>
</linearGradient>
<linearGradient id="paint19_linear_9_207" x1="677.987" y1="194.617" x2="677.987" y2="768.188" gradientUnits="userSpaceOnUse">
<stop offset="0.384615" stop-color="#CF152D"/>
<stop offset="0.528846" stop-color="#63656A"/>
</linearGradient>
<linearGradient id="paint20_linear_9_207" x1="677.987" y1="194.617" x2="677.987" y2="768.188" gradientUnits="userSpaceOnUse">
<stop offset="0.384615" stop-color="#CF152D"/>
<stop offset="0.528846" stop-color="#63656A"/>
</linearGradient>
<linearGradient id="paint21_linear_9_207" x1="677.987" y1="194.617" x2="677.987" y2="768.188" gradientUnits="userSpaceOnUse">
<stop offset="0.384615" stop-color="#CF152D"/>
<stop offset="0.528846" stop-color="#63656A"/>
</linearGradient>
<linearGradient id="paint22_linear_9_207" x1="677.987" y1="194.617" x2="677.987" y2="768.188" gradientUnits="userSpaceOnUse">
<stop offset="0.384615" stop-color="#CF152D"/>
<stop offset="0.528846" stop-color="#63656A"/>
</linearGradient>
<linearGradient id="paint23_linear_9_207" x1="677.987" y1="194.617" x2="677.987" y2="768.188" gradientUnits="userSpaceOnUse">
<stop offset="0.384615" stop-color="#CF152D"/>
<stop offset="0.528846" stop-color="#63656A"/>
</linearGradient>
<linearGradient id="paint24_linear_9_207" x1="677.987" y1="194.617" x2="677.987" y2="768.188" gradientUnits="userSpaceOnUse">
<stop offset="0.384615" stop-color="#CF152D"/>
<stop offset="0.528846" stop-color="#63656A"/>
</linearGradient>
<linearGradient id="paint25_linear_9_207" x1="677.987" y1="194.617" x2="677.987" y2="768.188" gradientUnits="userSpaceOnUse">
<stop offset="0.384615" stop-color="#CF152D"/>
<stop offset="0.528846" stop-color="#63656A"/>
</linearGradient>
<linearGradient id="paint26_linear_9_207" x1="677.987" y1="194.617" x2="677.987" y2="768.188" gradientUnits="userSpaceOnUse">
<stop offset="0.384615" stop-color="#CF152D"/>
<stop offset="0.528846" stop-color="#63656A"/>
</linearGradient>
<linearGradient id="paint27_linear_9_207" x1="677.987" y1="194.617" x2="677.987" y2="768.188" gradientUnits="userSpaceOnUse">
<stop offset="0.384615" stop-color="#CF152D"/>
<stop offset="0.528846" stop-color="#63656A"/>
</linearGradient>
<linearGradient id="paint28_linear_9_207" x1="677.987" y1="194.617" x2="677.987" y2="768.188" gradientUnits="userSpaceOnUse">
<stop offset="0.384615" stop-color="#CF152D"/>
<stop offset="0.528846" stop-color="#63656A"/>
</linearGradient>
<linearGradient id="paint29_linear_9_207" x1="677.987" y1="194.617" x2="677.987" y2="768.188" gradientUnits="userSpaceOnUse">
<stop offset="0.384615" stop-color="#CF152D"/>
<stop offset="0.528846" stop-color="#63656A"/>
</linearGradient>
</defs>
</svg>
